<?xml version="1.0" encoding="utf-8"?>
<!-- Generator: Adobe Illustrator 19.1.0, SVG Export Plug-In . SVG Version: 6.00 Build 0)  -->
<svg version="1.1" id="Layer_1" xmlns="http://www.w3.org/2000/svg" xmlns:xlink="http://www.w3.org/1999/xlink" x="0px" y="0px"
	 viewBox="0 0 655.4 120.7" style="enable-background:new 0 0 655.4 120.7;" xml:space="preserve">
<style type="text/css">
	.st0{fill:#FFFFFF;}
	.st1{fill:none;}
	.st2{fill:#2E358C;}
	.st3{fill:#293E91;}
	.st4{fill:#EB252C;}
</style>
<g>
	<polygon class="st0" points="220.9,41.4 193.9,41.4 174.3,84.1 201.2,84.1 	"/>
	<polygon class="st0" points="227.9,26 201,26 196.3,36.2 223.2,36.2 	"/>
	<polygon class="st0" points="490.1,41.4 463.2,41.4 443.6,84.1 470.5,84.1 	"/>
	<polygon class="st0" points="497.2,26 470.3,26 465.6,36.2 492.5,36.2 	"/>
	<path class="st0" d="M245.3,68.7h1.7l4.7,15.4h26.9l-4.7-15.4h-1.7c7.4,0,16.3-6.1,19.7-13.7l7.1-15.4c3.5-7.6,0.3-13.7-7.2-13.7
		H238l-26.7,58.2h26.9L245.3,68.7z M262.6,31.1h13.5l-14.9,32.5h-13.5L262.6,31.1z"/>
	<path class="st0" d="M524.8,46.5h13.5L521,84.1h26.9l13.3-29.1c3.5-7.6,0.3-13.7-7.2-13.7h-53.9l-19.6,42.8h26.9L524.8,46.5z"/>
	<path class="st0" d="M362.2,41.4h-47.1l-2.4,5.1h33.7l-2.4,5.1h-26.9c-4.3,0-9,2-12.9,5.1c-2.9,2.3-5.4,5.3-6.9,8.6l-2.4,5.1
		c-3.5,7.6-0.3,13.7,7.2,13.7h53.9l13.3-29.1C372.9,47.5,369.7,41.4,362.2,41.4z M331.5,79H318l10.2-22.2h13.5L331.5,79z"/>
	<path class="st0" d="M379.6,84.1H420c7.4,0,16.3-6.1,19.7-13.7l0.8-1.7h-26.9L408.9,79h-13.5l14.9-32.5h13.5l-4.7,10.3H446l0.8-1.7
		c3.5-7.6,0.3-13.7-7.2-13.7h-40.4c-4.3,0-9,2-12.9,5.1c-2.9,2.3-5.4,5.3-6.9,8.6l-7.1,15.4C369,78,372.2,84.1,379.6,84.1z"/>
	<path class="st0" d="M591.1,41.4L591.1,41.4C591.1,41.4,591.1,41.4,591.1,41.4c-4.3,0-9,2-12.9,5.1c-2.9,2.3-5.4,5.3-6.9,8.6
		l-7.1,15.4c-1.5,3.2-1.7,6.2-1,8.6c1,3.1,3.9,5.1,8.2,5.1h26.9l-2.4,5.1H171.7l-2.4,5.1h437.9c4.3,0,9-2,12.9-5.1
		c2.9-2.3,5.4-5.3,6.9-8.6L645,41.4H591.1z M600.8,79h-13.5l14.9-32.5h13.5L600.8,79z"/>
</g>
<g>
	<path class="st1" d="M151.9,29c0.5-0.6,1-1.2,1.6-1.8C152.9,27.7,152.3,28.4,151.9,29z"/>
	<path class="st1" d="M154.4,20.1c-0.2-0.2-0.3-0.4-0.5-0.6C154.1,19.7,154.3,19.9,154.4,20.1z"/>
	<path class="st0" d="M9.9,9C8.4,9,7.6,9.9,6.4,11.4c-2,2.6-1.4,2.2-0.9,3.9c0.7,2-0.1,3.5,1.8,4.3c1,0.4,1.7-0.7,2-2
		c0.6,1.6,1,2.6,1.6,4.3c0.6,0.8,1.6,2.2,2.7,1.8c1.6,0,2,1.1,2.3,2.2c-0.5,1.9,0.1,1.8,1.1,3c0.5,0.7,0.9,1.8,1.3,2.1
		c0.2,0.2,0.7,0.6,0.9,0.9c1.3,1.5,2.2,3.2,3.4,4.7c2.3,1.8,3.6,3.1,4.4,4.6c3.7,4.8,4.8,7.3,7.7,9.6c0.7,1.1,2.2,1.9,2.3,3.4
		c0.3,2.7,4.9,6.7,7.6,9.3c4,3.9,7.8,7.1,12.6,10.1c4.4,11.9,8,27.5,6.9,40.5c-0.6,2.5-1.1,4.7-1.6,7.1h42.8c-0.2-1-0.4-2.1-0.6-3.1
		c-0.1-0.7-0.5-1.4-0.5-2.2c0-0.5,0.5-1,0.5-1.5c0.9-13.4,4.8-22.2,7.3-33.8c0.4-1.9,0.9-3.7,0.7-4.5c3-2,5.9-3.3,7.9-6.9
		c4.4-3.2,7.3-6.4,7.8-9.8c1.5-1.6,4.9-1.3,4.9-4.5c1.6-1.6,2.4-2.8,2.7-4.6c2.2-2.8,5.2-5.9,5.3-7.8c3-2.2,4.9-3.7,3.8-6
		c1.7-0.8,2.7-2.6,2.2-4.2c1.3-1.5,3.8-1.7,4.6-3.2c0.4-0.6,1-1.2,1.6-1.8c0.4-0.5,0.8-0.9,1.2-1.3v-2.5c0-0.1,0-0.1,0-0.2v-2.8
		c-0.1-0.1-0.1-0.1-0.2-0.2c-0.2-0.2-0.3-0.4-0.5-0.6c0.1-1.9-0.9-2.7-3-3c0.2-1.8,1-3.9,1.5-5.8c0.9-1.4,1.1-2.5,0.5-3.2
		c-1.2-1.1-2.1,0.1-3.5,2.4c-0.6,1.3-1.5,3.3-2.2,4.6c-0.8,1.1-1.5,2.1-2.2,3.5c-1.3,1.4-2.8,3.9-2.8,5.8c-0.7,0.9-0.8,1.5-1.5,1.9
		c-0.3-0.1-0.8-0.3-1.3,0.3c-0.2,0.8-0.7,1.3-0.7,1.8c-1.5-0.6-2.6,0.7-3.4,3.2c-0.5,0.3-1.8,0.7-1.8,1.1c-0.6,0.5-0.8,1.1-1.4,1.5
		c-1.4,0.2-1.6,1.7-2.4,2.5c-0.8,0.3-1.4,1.3-1.9,2.3c-1-0.1-2.1,1.3-2.6,2.4c-1.9,1.1-2.6,2-3.2,3.6c-1.4,0.1-3.2,0.9-4,2.6
		c-1.5,1-3.2,2.6-3.9,4.2c-1.6,1.1-2.6,2.7-4.2,5.2c-1.7-0.8-3.6-0.8-5.5,0c-1.2-0.3-2.3-0.5-3.5-0.7c-0.7-0.7-0.7-1.4-0.3-2
		c0-0.7,0-1.5,0-2.3c0.5-1.8,1-3.6,1.5-5.5c1.4-3.4,1.4-6.4,0.9-9.6c0.2-2.8-0.1-5.5-1.4-8.4c-3.2-2.3-7.8-4.2-11.7-4.2
		c-4.8-0.6-8.2,0-11.5,1.8c-1.8,1-3.4,2.3-5.2,3.4c-1.9,1-3.6,5.5-5.3,8.2c-1.8,3.9-0.4,4.3,1.3,3.5h0.1c-3.2-0.1-0.3-3,1.1-3.1
		c4.6-0.5,9.6-0.3,16.7,4.1c2.2,1.3,4.4,2.4,6.4,1.8c0.9,1.1-1,2.7-3.1,3.2c-10.2,0.6-19.8,0.6-20.7-1.9c0.4-1.4,0.5-2.9,0.7-4.2
		c-0.2,0-0.3,0-0.5,0.1c0.7,0.4-0.1,3.2-0.3,5.1c-1.3,1-1.7,2.4-1.3,4.3c0.5,1.4,1,2.9,0.5,5c-0.6,0.1-1.2,0.2-1.8,0.3
		c-0.9-0.5-1.6-0.9-2.5-1.3c-1.4-0.3-2.4-0.2-3.3,0.2c-1.3-1.6-2.7-1.7-4-1.5c-0.9-0.7-1.7-1.5-2.6-2.2c-0.2-2.8-1.6-4.7-4.3-4.9
		c-1.1-0.9-2.3-1.3-3.5-2.1c0-0.7,0-1.5,0-2.3c-0.5-1.4-1.2-2.8-3.5-3.5c-1.8,0.2-2.3-1.6-3.4-3.2c-1.4-1.2-2.8-2.6-4.2-3.7
		c-0.7-1-2.1-1.6-2.8-2.6c-1-0.5-1.5-1.3-2.5-1.8c-0.4-0.4-1-1.7-1.6-2.3c-0.6-0.5-1.3-0.4-1.7-0.4c-0.5-0.8-0.7-0.9-1.1-1.7
		c-1-0.8-2-1.5-3.1-2.3c-0.8-1-1.6-2-2.5-3c-0.7-0.5-1.3-1-2-1.5c-1.3-2.6-3.5-5.2-4.6-7.3c-0.8-1.1-0.5-1.9-1.2-3
		c-0.4-0.7-0.7-1.4-1.1-2.1L10.1,0H8.6C8.4,0.5,8.3,1.3,8.3,2.2c0.3,1.3,0.7,2.5,1,3.8C9.3,7.1,9.9,7.8,9.9,9z M68.9,55.2
		c1.4,6.7,13.8,3.9,26.6,0.4c-5.3,2.5-10.9,5.2-18,5C71,60.5,67.5,58.8,68.9,55.2z"/>
	<path class="st2" d="M154.8,22.8c-0.1,0.1-0.2,0.2-0.2,0.3c0,0.5,0.1,0.8,0.2,1.1V22.8z"/>
	<path class="st3" d="M77.4,60.6c7.2,0.2,12.7-2.5,18-5c-12.7,3.5-25.1,6.3-26.6-0.4C67.5,58.8,71,60.5,77.4,60.6z"/>
	<path class="st3" d="M154.4,20.1c0.1,0.1,0.1,0.1,0.2,0.2v0C154.6,20.2,154.5,20.1,154.4,20.1z"/>
	<path class="st3" d="M154.6,25.8L154.6,25.8c-0.4,0.4-0.8,0.8-1.2,1.3C153.8,26.7,154.2,26.2,154.6,25.8z"/>
	<path class="st3" d="M11.5,2.5c0.4,0.7,0.7,1.4,1.1,2.1L11.5,2.5z"/>
	<path class="st2" d="M154.8-0.2H9.8c0.1,0,0.2,0.1,0.3,0.1c0.5,0.9,0.9,1.8,1.4,2.7l1.1,2.1c0.7,1.1,0.4,1.9,1.2,3
		c1.1,2.1,3.3,4.7,4.6,7.3c0.7,0.5,1.3,1,2,1.5c0.9,1,1.7,2,2.5,3c1,0.7,2,1.5,3.1,2.3c0.5,0.8,0.6,0.9,1.1,1.7
		c0.5,0,1.1-0.1,1.7,0.4c0.7,0.6,1.3,1.9,1.6,2.3c1,0.5,1.5,1.3,2.5,1.8c0.7,1,2.1,1.6,2.8,2.6c1.4,1.1,2.8,2.5,4.2,3.7
		c1.1,1.6,1.5,3.4,3.4,3.2c2.3,0.7,3,2.1,3.5,3.5c0,0.7,0,1.5,0,2.3c1.2,0.9,2.4,1.3,3.5,2.1c2.7,0.2,4.1,2.2,4.3,4.9
		c0.9,0.7,1.7,1.5,2.6,2.2c1.3-0.2,2.7-0.1,4,1.5c0.9-0.4,1.9-0.6,3.3-0.2c0.9,0.4,1.6,0.8,2.5,1.3c0.6-0.1,1.2-0.2,1.8-0.3
		c0.5-2.1,0-3.6-0.5-5c-0.5-1.9-0.1-3.3,1.3-4.3c0.2-1.9,1-4.7,0.3-5.1c0.2-0.1,0.3-0.1,0.5-0.1c-0.2,1.3-0.3,2.8-0.7,4.2
		c0.9,2.5,10.5,2.4,20.7,1.9c2.1-0.5,3.9-2.1,3.1-3.2c-2,0.6-4.2-0.6-6.4-1.8c-7.1-4.4-12.1-4.6-16.7-4.1c-1.4,0.1-4.3,3-1.1,3.1
		h-0.1c-1.6,0.8-3.1,0.4-1.3-3.5c1.8-2.7,3.4-7.2,5.3-8.2c1.8-1,3.4-2.3,5.2-3.4c3.3-1.8,6.7-2.4,11.5-1.8c3.9,0,8.5,1.9,11.7,4.2
		c1.3,2.9,1.5,5.5,1.4,8.4c0.5,3.1,0.5,6.2-0.9,9.6c-0.5,1.9-1,3.7-1.5,5.5c0,0.8,0,1.5,0,2.3c-0.5,0.7-0.4,1.4,0.3,2
		c1.2,0.2,2.3,0.5,3.5,0.7c1.9-0.8,3.8-0.8,5.5,0c1.6-2.6,2.6-4.2,4.2-5.2c0.7-1.7,2.4-3.2,3.9-4.2c0.9-1.7,2.6-2.4,4-2.6
		c0.6-1.6,1.3-2.4,3.2-3.6c0.5-1.1,1.5-2.4,2.6-2.4c0.5-1,1.1-2,1.9-2.3c0.9-0.9,1.1-2.3,2.4-2.5c0.6-0.4,0.8-1.1,1.4-1.5
		c0.1-0.5,1.3-0.9,1.8-1.1c0.8-2.5,1.9-3.8,3.4-3.2c0-0.6,0.5-1,0.7-1.8c0.5-0.6,1-0.5,1.3-0.3c0.7-0.4,0.8-1,1.5-1.9
		c0-1.9,1.5-4.4,2.8-5.8c0.7-1.4,1.4-2.4,2.2-3.5c0.7-1.3,1.5-3.3,2.2-4.6c1.4-2.4,2.3-3.6,3.5-2.4c0.6,0.7,0.4,1.8-0.5,3.2
		c-0.5,1.9-1.3,4-1.5,5.8c2.2,0.3,3.1,1.1,3,3c0.2,0.2,0.4,0.4,0.5,0.6c0.1,0.1,0.1,0.1,0.2,0.2v0c0.1,0.1,0.2,0.2,0.2,0.3
		L154.8-0.2z"/>
	<path class="st2" d="M154.6,25.8L154.6,25.8c-0.4,0.5-0.8,0.9-1.2,1.3c-0.6,0.6-1.1,1.3-1.6,1.8c-0.8,1.5-3.3,1.6-4.6,3.2
		c0.5,1.7-0.5,3.4-2.2,4.2c1.1,2.3-0.9,3.8-3.8,6c-0.2,1.9-3.2,5-5.3,7.8c-0.3,1.8-1.1,3-2.7,4.6c0,3.2-3.5,2.9-4.9,4.5
		c-0.5,3.4-3.4,6.5-7.8,9.8c-2,3.6-4.9,4.9-7.9,6.9c0.2,0.8-0.3,2.6-0.7,4.5c-2.5,11.5-6.4,20.4-7.3,33.8c-0.1,0.5-0.5,1-0.5,1.5
		c0,0.7,0.3,1.4,0.5,2.2c0.2,1,0.4,2.1,0.6,3.1h49.7l0-95.5C154.8,25.6,154.7,25.7,154.6,25.8z"/>
	<path class="st4" d="M57.1,73.3c-4.7-3-8.6-6.1-12.6-10.1c-2.7-2.6-7.3-6.5-7.6-9.3c-0.2-1.5-1.6-2.2-2.3-3.4c-3-2.3-4-4.7-7.7-9.6
		c-0.8-1.5-2.1-2.8-4.4-4.6c-1.3-1.5-2.2-3.2-3.4-4.7c-0.2-0.2-0.7-0.7-0.9-0.9c-0.4-0.3-0.8-1.4-1.3-2.1c-1-1.3-1.5-1.1-1.1-3
		c-0.3-1.1-0.7-2.2-2.3-2.2c-1,0.4-2-1-2.7-1.8c-0.6-1.7-1-2.6-1.6-4.3c-0.3,1.3-1.1,2.4-2,2c-1.8-0.8-1-2.2-1.8-4.3
		c-0.6-1.7-1.1-1.3,0.9-3.9C7.6,9.9,8.4,9,9.9,9c0-1.2-0.6-1.9-0.6-3.1C9,4.7,8.6,3.4,8.3,2.2c0-1.1,0.1-2.1,0.6-2.4H0v121.2h62.4
		c0.6-2.4,1-4.6,1.6-7.1C65.1,100.9,61.5,85.3,57.1,73.3z"/>
</g>
<g>
	<path class="st0" d="M647.7,39.3c0-0.4,0-0.7,0.1-1c0.1-0.3,0.2-0.6,0.4-0.9c0.2-0.3,0.4-0.6,0.6-0.8c0.2-0.2,0.5-0.4,0.8-0.6
		c0.3-0.2,0.6-0.3,0.9-0.4c0.3-0.1,0.7-0.2,1-0.2c0.4,0,0.7,0,1,0.1s0.6,0.2,0.9,0.4c0.3,0.2,0.6,0.4,0.8,0.6
		c0.2,0.2,0.4,0.5,0.6,0.8c0.2,0.3,0.3,0.6,0.4,0.9c0.1,0.3,0.2,0.7,0.2,1c0,0.4,0,0.7-0.1,1c-0.1,0.3-0.2,0.6-0.4,0.9
		c-0.2,0.3-0.4,0.6-0.6,0.8c-0.2,0.2-0.5,0.4-0.8,0.6c-0.3,0.2-0.6,0.3-0.9,0.4c-0.3,0.1-0.7,0.2-1,0.2c-0.4,0-0.7,0-1-0.1
		c-0.3-0.1-0.6-0.2-0.9-0.4c-0.3-0.2-0.6-0.4-0.8-0.6c-0.2-0.2-0.4-0.5-0.6-0.8c-0.2-0.3-0.3-0.6-0.4-0.9
		C647.7,40,647.7,39.6,647.7,39.3z M648.4,39.3c0,0.5,0.1,0.9,0.3,1.3c0.2,0.4,0.4,0.7,0.7,1c0.3,0.3,0.6,0.5,1,0.7
		c0.4,0.2,0.8,0.2,1.2,0.2c0.4,0,0.9-0.1,1.2-0.3c0.4-0.2,0.7-0.4,1-0.7c0.3-0.3,0.5-0.6,0.7-1c0.2-0.4,0.2-0.8,0.2-1.3
		c0-0.3,0-0.6-0.1-0.9c-0.1-0.3-0.2-0.5-0.3-0.8c-0.1-0.2-0.3-0.5-0.5-0.7c-0.2-0.2-0.4-0.4-0.7-0.5c-0.2-0.1-0.5-0.2-0.8-0.3
		c-0.3-0.1-0.6-0.1-0.9-0.1c-0.3,0-0.6,0.1-0.8,0.1c-0.3,0.1-0.5,0.2-0.8,0.3c-0.2,0.1-0.4,0.3-0.6,0.5c-0.2,0.2-0.3,0.4-0.5,0.7
		c-0.1,0.2-0.2,0.5-0.3,0.8C648.4,38.7,648.4,39,648.4,39.3z M651,39.8l0,1.7l-1.1,0l-0.1-4.7l1.7,0c0.7,0,1.1,0.1,1.4,0.3
		c0.3,0.2,0.5,0.6,0.5,1c0,0.3-0.1,0.6-0.2,0.8c-0.2,0.2-0.4,0.4-0.7,0.5c0.1,0,0.1,0.1,0.2,0.2c0.1,0.1,0.1,0.1,0.2,0.2l1,1.6
		l-1.1,0c-0.2,0-0.3-0.1-0.3-0.2l-0.8-1.4c0,0-0.1-0.1-0.1-0.1c0,0-0.1,0-0.2,0L651,39.8z M651,39l0.5,0c0.2,0,0.3,0,0.4-0.1
		c0.1,0,0.2-0.1,0.3-0.1c0.1-0.1,0.1-0.1,0.1-0.2c0-0.1,0-0.2,0-0.3c0-0.1,0-0.2,0-0.3c0-0.1-0.1-0.1-0.1-0.2
		c-0.1-0.1-0.1-0.1-0.2-0.1c-0.1,0-0.2,0-0.4,0l-0.6,0L651,39z"/>
</g>
</svg>
